<?xml version="1.0" encoding="UTF-8" standalone="no"?>
<!-- Created with Inkscape (http://www.inkscape.org/) -->

<svg
   xmlns:dc="http://purl.org/dc/elements/1.1/"
   xmlns:cc="http://creativecommons.org/ns#"
   xmlns:rdf="http://www.w3.org/1999/02/22-rdf-syntax-ns#"
   xmlns:svg="http://www.w3.org/2000/svg"
   xmlns="http://www.w3.org/2000/svg"
   xmlns:sodipodi="http://sodipodi.sourceforge.net/DTD/sodipodi-0.dtd"
   xmlns:inkscape="http://www.inkscape.org/namespaces/inkscape"
   width="210mm"
   height="297mm"
   viewBox="0 0 210 297"
   version="1.1"
   id="svg448"
   sodipodi:docname="LOGO_FINAL.svg"
   inkscape:version="0.92.5 (2060ec1f9f, 2020-04-08)">
  <defs
     id="defs442" />
  <sodipodi:namedview
     id="base"
     pagecolor="#ffffff"
     bordercolor="#666666"
     borderopacity="1.0"
     inkscape:pageopacity="0.0"
     inkscape:pageshadow="2"
     inkscape:zoom="0.35"
     inkscape:cx="-211.42857"
     inkscape:cy="560"
     inkscape:document-units="mm"
     inkscape:current-layer="layer3"
     showgrid="false"
     inkscape:window-width="1920"
     inkscape:window-height="1055"
     inkscape:window-x="0"
     inkscape:window-y="0"
     inkscape:window-maximized="1"
     showguides="true"
     inkscape:guide-bbox="true" />
  <metadata
     id="metadata445">
    <rdf:RDF>
      <cc:Work
         rdf:about="">
        <dc:format>image/svg+xml</dc:format>
        <dc:type
           rdf:resource="http://purl.org/dc/dcmitype/StillImage" />
        <dc:title></dc:title>
      </cc:Work>
    </rdf:RDF>
  </metadata>
  <g
     inkscape:groupmode="layer"
     id="layer3"
     inkscape:label="Capa 2"
     style="display:inline" />
  <g
     inkscape:label="Capa 1"
     inkscape:groupmode="layer"
     id="layer1"
     style="display:inline">
    <path
       inkscape:connector-curvature="0"
       id="path49-0"
       d="m 78.913442,176.88819 c 0,-0.0994 1.41524,-3.03466 12.08442,-25.06378 12.084628,-24.95163 15.138928,-31.2546 20.875968,-43.08039 l 5.37591,-11.081368 21.26908,-0.0636 21.26907,-0.0636 0.1257,0.8107 c 0.13044,0.84124 0.58372,-0.12036 -13.70506,29.074428 -1.8434,3.76642 -5.62489,11.49847 -8.40333,17.18235 -2.77843,5.68387 -6.81367,13.92019 -8.96722,18.30293 -2.15354,4.38275 -4.56881,9.34135 -5.36727,11.01912 l -1.45175,3.05049 h -21.55275 c -11.854028,0 -21.552768,-0.0392 -21.552768,-0.0872 z"
       style="fill:#3770c0;stroke-width:0.24901961"
       sodipodi:nodetypes="sssccccsccccsss" />
    <path
       inkscape:connector-curvature="0"
       id="path33-8"
       d="m 78.913442,176.88819 c -0.14416,-0.18622 -1.02286,-1.79534 -1.95266,-3.57583 -0.9298,-1.78049 -5.42479,-10.29696 -9.98887,-18.92549 -4.56407,-8.62853 -8.37172,-15.88433 -8.46144,-16.12402 -0.15436,-0.41236 0.74836,-0.43578 16.79685,-0.43578 10.03144,0 16.95997,0.0926 16.95997,0.22677 0,0.12473 -2.89634,8.8373 -6.43632,19.36127 -3.53997,10.52398 -6.48561,19.28686 -6.54586,19.47308 -0.0923,0.28543 -0.1507,0.28543 -0.37167,0 z m 3.14405,-5.24741 c 0,-0.24802 11.13709,-33.50095 11.31843,-33.79435 0.16541,-0.26765 5.365884,-0.40191 5.365884,-0.13853 0,0.25873 -16.188954,33.59008 -16.433284,33.83441 -0.13807,0.13807 -0.25103,0.18238 -0.25103,0.0985 z"
       style="fill:#4d4a4a;stroke-width:0.24901961" />
    <text
       xml:space="preserve"
       style="font-style:normal;font-weight:normal;font-size:3.48737931px;line-height:1.25;font-family:sans-serif;letter-spacing:0px;word-spacing:0px;fill:#3871c1;fill-opacity:1;stroke:none;stroke-width:0.08718448"
       x="47.445496"
       y="248.34892"
       id="text362"
       transform="scale(1.2645902,0.79077001)"><tspan
         sodipodi:role="line"
         id="tspan360"
         x="47.445496"
         y="248.34892"
         style="font-style:normal;font-variant:normal;font-weight:normal;font-stretch:normal;font-size:34.87379456px;font-family:Uroob;-inkscape-font-specification:'Uroob, Normal';font-variant-ligatures:normal;font-variant-caps:normal;font-variant-numeric:normal;font-feature-settings:normal;text-align:start;writing-mode:lr-tb;text-anchor:start;fill:#3871c1;fill-opacity:1;stroke-width:0.08718448">VTOUR</tspan></text>
  </g>
</svg>
